<svg xmlns="http://www.w3.org/2000/svg" shape-rendering="geometricPrecision" width="4000" height="4000" viewBox="0 0 1024 1024">
  <metadata>null</metadata>

<path d="&#xA;M 161.376 596.946&#xA;C 169.547 596.95 177.795 596.551 185.959 596.92&#xA;C 185.368 604.705 185.929 612.701 185.878 620.51&#xA;C 185.824 628.655 185.15 637.183 185.905 645.29&#xA;C 186.229 645.775 186.649 644.682 186.834 644.41&#xA;C 187.794 643.005 189.089 641.789 190.168 640.472&#xA;C 193.093 636.901 195.939 633.217 199.041 629.799&#xA;C 205.558 622.617 211.933 615.258 218.249 607.901&#xA;C 221.347 604.293 224.327 599.768 228.005 596.764&#xA;C 230.107 596.454 232.379 596.714 234.506 596.701&#xA;C 239.001 596.674 243.506 596.737 248.001 596.632&#xA;C 250.171 596.581 252.34 596.64 254.509 596.596&#xA;C 255.533 596.575 256.888 596.375 257.849 596.72&#xA;C 257.026 598.303 255.272 599.547 254.086 600.878&#xA;C 251.23 604.079 248.369 607.277 245.585 610.542&#xA;C 235.562 622.295 225.699 634.34 215.096 645.574&#xA;C 215.234 646.981 217.005 648.639 217.843 649.797&#xA;C 220.299 653.189 222.763 656.596 225.147 660.038&#xA;C 233.832 672.574 242.861 684.898 251.63 697.381&#xA;C 253.987 700.736 256.397 704.059 258.795 707.385&#xA;C 259.647 708.566 261.656 710.357 261.887 711.785&#xA;C 255.267 711.958 248.619 711.796 241.996 711.76&#xA;C 238.669 711.742 234.974 712.215 231.696 711.727&#xA;C 230.515 710.952 229.794 709.445 228.997 708.313&#xA;C 227.347 705.97 225.746 703.596 224.109 701.243&#xA;C 218.274 692.854 212.338 684.527 206.448 676.177&#xA;C 204.434 673.322 202.472 670.43 200.45 667.578&#xA;C 200.047 667.009 199.176 665.095 198.579 665.279&#xA;C 196.387 668.86 192.745 672.089 189.837 675.11&#xA;C 188.651 676.344 187.103 677.627 186.243 679.121&#xA;C 185.769 679.944 185.906 681.009 185.901 681.919&#xA;C 185.888 684.114 185.838 686.309 185.836 688.504&#xA;C 185.827 696.123 185.615 703.798 185.846 711.41&#xA;C 177.746 711.333 169.509 711.049 161.422 711.476&#xA;C 161.007 710.587 161.156 709.469 161.161 708.503&#xA;C 161.172 706.337 161.168 704.17 161.169 702.003&#xA;C 161.173 694.169 161.19 686.336 161.198 678.503&#xA;C 161.215 660.67 161.213 642.837 161.178 625.004&#xA;C 161.16 615.775 160.658 606.426 161.125 597.212&#xA;C 161.209 597.123 161.292 597.034 161.376 596.946 Z" opacity="1" fill="rgb(27,52,56)" fill-rule="evenodd"></path>
<path d="&#xA;M 259.956 597.054&#xA;C 260.038 596.878 260.12 596.703 260.202 596.527&#xA;C 278.961 596.788 297.741 596.51 316.505 596.533&#xA;C 327.521 596.546 338.715 597.204 349.712 596.637&#xA;C 349.928 601.227 349.718 605.896 349.725 610.499&#xA;C 349.729 613.211 350.089 616.299 349.551 618.957&#xA;C 341.37 618.909 333.187 618.948 325.005 618.923&#xA;C 323.069 618.917 321.134 618.916 319.199 618.899&#xA;C 318.394 618.892 317.339 618.664 316.888 619.391&#xA;C 316.959 639.925 316.831 660.465 316.838 681.001&#xA;C 316.841 687.669 316.85 694.336 316.875 701.004&#xA;C 316.888 704.337 317.41 708.07 316.825 711.355&#xA;C 311.061 711.196 305.267 711.281 299.499 711.273&#xA;C 297.316 711.27 294.157 711.899 292.131 711.135&#xA;C 292.471 689.932 292.161 668.709 292.213 647.502&#xA;C 292.236 638.099 291.56 628.411 292.357 619.044&#xA;C 291.453 618.719 290.257 618.953 289.31 618.967&#xA;C 287.044 619 284.773 618.971 282.507 618.968&#xA;C 274.994 618.956 267.448 618.735 259.941 618.96&#xA;C 259.504 613.721 259.747 608.205 260.03 602.959&#xA;C 260.136 600.991 259.79 599.015 259.956 597.054 Z" opacity="1" fill="rgb(28,52,56)" fill-rule="evenodd"></path>
<path d="&#xA;M 430.696 269.443&#xA;C 430.32 278.656 426.744 288.028 427.543 297.337&#xA;C 421.921 297.519 416.27 296.969 410.639 297.13&#xA;C 393.233 297.628 373.962 300.697 359.959 311.922&#xA;C 356.092 315.022 352.766 318.786 350.367 323.11&#xA;C 348.339 326.762 346.786 330.361 346.017 334.488&#xA;C 345.154 339.116 345.568 343.944 346.649 348.493&#xA;C 351.904 370.62 372.505 382.432 392.602 389.369&#xA;C 391.467 391.753 389.659 393.725 388.195 395.903&#xA;C 386.186 398.892 384.309 401.891 382.65 405.092&#xA;C 381.225 407.843 379.994 412.593 377.558 414.553&#xA;C 375.838 414.22 374.134 413.182 372.518 412.511&#xA;C 367.141 410.281 362.426 407.457 357.391 404.605&#xA;C 345.377 397.799 334.264 387.818 327.156 375.858&#xA;C 317.86 360.218 315.348 340.043 320.325 322.592&#xA;C 322.379 315.391 326.183 308.877 330.431 302.774&#xA;C 333.386 298.528 337.214 295.196 341.031 291.773&#xA;C 355.545 278.758 374.859 272.152 394.004 269.927&#xA;C 402.153 268.981 410.319 269.14 418.506 269.232&#xA;C 421.146 269.262 423.791 269.274 426.428 269.388&#xA;C 427.424 269.431 428.42 269.419 429.415 269.459&#xA;C 429.516 269.463 430.712 269.517 430.696 269.443 Z" opacity="1" fill="rgb(103,171,220)" fill-rule="evenodd"></path>
<path d="&#xA;M 351.757 587.746&#xA;C 354.117 587.035 357.046 587.342 359.5 587.384&#xA;C 363.503 587.454 367.505 587.431 371.508 587.424&#xA;C 373.802 587.42 377.096 586.757 379.273 587.469&#xA;C 378.513 592.193 375.97 597.006 374.276 601.471&#xA;C 371.734 608.172 369.249 614.867 366.439 621.465&#xA;C 365.348 624.026 364.228 626.625 363.357 629.268&#xA;C 363.155 629.879 362.934 631.899 362.482 632.255&#xA;C 360.799 632.308 358.877 632.41 357.211 632.195&#xA;C 357.354 617.291 352.858 602.53 351.757 587.746 Z" opacity="1" fill="rgb(26,50,53)" fill-rule="evenodd"></path>
<path d="&#xA;M 377.558 414.553&#xA;C 379.994 412.593 381.225 407.843 382.65 405.092&#xA;C 384.309 401.891 386.186 398.892 388.195 395.903&#xA;C 389.659 393.725 391.467 391.753 392.602 389.369&#xA;C 393.219 389.412 394.51 387.024 394.907 386.466&#xA;C 397.044 383.458 399.169 380.434 401.48 377.555&#xA;C 407.872 369.594 414.427 361.863 421.474 354.465&#xA;C 423.385 352.46 425.287 350.434 427.314 348.547&#xA;C 428.971 347.006 430.896 345.713 432.343 343.958&#xA;C 438.157 338.738 444.296 333.877 450.36 328.953&#xA;C 452.689 327.062 455.751 325.605 457.852 323.507&#xA;C 459.332 322.898 460.579 321.664 461.863 320.73&#xA;C 464.199 319.031 466.505 317.292 468.829 315.576&#xA;C 472.316 313.003 476.518 310.981 479.783 308.2&#xA;C 482.797 305.904 486.894 304.355 490.258 302.576&#xA;C 496.18 299.442 502.045 296.547 508.154 293.807&#xA;C 509.856 293.044 511.569 291.854 513.304 291.262&#xA;C 517.059 292.552 520.695 294.84 524.232 296.669&#xA;C 529.2 299.237 534.237 301.667 539.14 304.357&#xA;C 540.969 305.361 542.851 306.216 544.752 307.069&#xA;C 545.371 307.347 546.701 307.749 546.815 308.461&#xA;C 546.156 308.766 545.241 308.681 544.507 308.92&#xA;C 542.304 309.635 540.109 310.382 537.925 311.152&#xA;C 532.679 313 527.55 315.65 522.576 318.131&#xA;C 520.395 319.219 515.625 320.391 514.315 322.504&#xA;C 512.93 321.799 511.066 323.309 509.819 323.957&#xA;C 505.724 326.086 501.723 328.367 497.719 330.662&#xA;C 487.505 336.517 477.767 343.411 468.566 350.739&#xA;C 462.126 355.869 455.662 360.866 449.7 366.56&#xA;C 442.11 373.809 434.858 381.465 428.09 389.478&#xA;C 426.442 391.429 424.929 393.47 423.417 395.525&#xA;C 422.95 396.158 422.071 397.234 423.023 397.798&#xA;C 420.85 397.339 419.469 400.488 418.331 402.05&#xA;C 414.846 406.835 411.969 412.071 408.75 417.034&#xA;C 407.937 418.288 404.747 421.892 405.461 423.349&#xA;C 404.117 423.331 403.165 426.713 402.541 427.862&#xA;C 399.981 432.571 397.569 437.318 395.646 442.328&#xA;C 388.327 461.392 379.773 484.678 391.313 504.013&#xA;C 399.705 518.075 417.128 518.835 431.049 514.123&#xA;C 450.004 507.708 463.924 491.095 476.757 476.632&#xA;C 478.671 474.474 480.866 472.562 482.81 470.423&#xA;C 486.437 466.432 489.895 462.375 493.923 458.81&#xA;C 494.115 458.85 494.307 458.89 494.499 458.93&#xA;C 499.042 463.918 504.344 468.848 509.819 472.8&#xA;C 511.317 473.882 512.836 474.555 514.492 475.33&#xA;C 515.165 475.645 515.692 476.33 516.439 476.38&#xA;C 516.476 477.118 516.507 476.827 516.439 477.257&#xA;C 505.021 487.537 495.594 499.83 484.757 510.704&#xA;C 467.457 528.061 446.839 542.903 421.85 545.773&#xA;C 414.258 546.646 406.231 545.276 399.038 542.862&#xA;C 393.138 540.883 387.719 538.184 382.644 534.58&#xA;C 378.833 531.873 375.012 528.749 372.11 525.058&#xA;C 369.714 522.01 367.842 518.595 366.008 515.196&#xA;C 353.1 491.265 357.407 464.172 366.288 439.662&#xA;C 368.56 433.392 371.082 427.255 374.077 421.293&#xA;C 375.186 419.086 376.18 416.594 377.558 414.553 Z" opacity="1" fill="rgb(114,168,136)" fill-rule="evenodd"></path>
<path d="&#xA;M 368.963 701.005&#xA;C 371.965 697.086 374.722 692.812 377.274 688.582&#xA;C 378.174 687.089 378.788 685.411 379.815 683.995&#xA;C 382.382 685.546 384.594 687.686 387.215 689.228&#xA;C 392.705 692.457 399.26 693.892 405.591 693.45&#xA;C 409.891 693.149 416.548 690.734 414.682 685.093&#xA;C 414.442 684.367 414 683.65 413.526 683.053&#xA;C 410.217 678.882 402.943 677.669 398.077 676.304&#xA;C 387.201 673.252 374.324 667.491 371.579 655.331&#xA;C 370.833 652.025 370.569 648.447 371.011 645.08&#xA;C 372.509 633.676 381.553 625.715 392.252 622.726&#xA;C 404.524 619.298 418.72 621.578 429.753 627.759&#xA;C 431.883 628.953 434.258 630.098 436.145 631.658&#xA;C 435.035 633.691 433.283 635.418 432.019 637.394&#xA;C 429.612 641.158 427.422 645.138 424.946 648.836&#xA;C 423.203 647.66 421.742 646.155 419.909 645.085&#xA;C 415 642.217 408.683 640.48 402.993 640.928&#xA;C 398.8 641.258 392.714 643.793 394.507 649.016&#xA;C 394.774 649.793 395.206 650.478 395.711 651.12&#xA;C 399.227 655.589 406.845 656.776 412.02 658.353&#xA;C 423.046 661.715 434.054 666.582 437.611 678.549&#xA;C 438.489 681.504 438.82 684.663 438.563 687.736&#xA;C 438.346 690.341 437.816 692.927 436.856 695.364&#xA;C 430.714 710.966 410.518 715.225 395.62 713.099&#xA;C 389.223 712.186 382.845 710.2 377.157 707.113&#xA;C 374.247 705.535 371.585 703.481 368.677 701.939&#xA;C 368.686 701.245 368.583 701.554 368.963 701.005 Z" opacity="1" fill="rgb(25,49,54)" fill-rule="evenodd"></path>
<path d="&#xA;M 423.023 397.798&#xA;C 428.74 398.667 434.513 400.659 440.135 402.053&#xA;C 459.266 406.799 478.254 414.167 495.229 424.213&#xA;C 500.206 427.159 505.055 430.237 509.713 433.667&#xA;C 511.777 435.186 514.289 436.549 516.021 438.446&#xA;C 515.952 439.085 515.228 439.679 514.765 440.112&#xA;C 513.383 441.404 511.85 442.512 510.434 443.765&#xA;C 506.68 447.086 502.973 450.429 499.39 453.936&#xA;C 497.803 455.489 496.275 457.642 494.499 458.93&#xA;C 494.307 458.89 494.115 458.85 493.923 458.81&#xA;C 491.595 457.833 489.458 455.237 487.382 453.747&#xA;C 482.741 450.419 477.946 447.418 472.907 444.727&#xA;C 465.407 440.722 457.578 437.206 449.511 434.494&#xA;C 441.539 431.813 433.285 430.219 425.157 428.119&#xA;C 420.612 426.945 416.08 425.747 411.505 424.698&#xA;C 409.542 424.248 407.468 423.48 405.461 423.349&#xA;C 404.747 421.892 407.937 418.288 408.75 417.034&#xA;C 411.969 412.071 414.846 406.835 418.331 402.05&#xA;C 419.469 400.488 420.85 397.339 423.023 397.798 Z" opacity="1" fill="rgb(34,102,137)" fill-rule="evenodd"></path>
<path d="&#xA;M 430.696 269.443&#xA;C 431.361 262.174 433.455 254.812 435.468 247.823&#xA;C 445.252 213.837 470.117 177.596 508.49 174.913&#xA;C 513.92 174.534 519.369 174.841 524.707 175.935&#xA;C 529.686 176.955 534.596 178.556 539.191 180.726&#xA;C 545.307 183.614 551.094 186.858 556.306 191.209&#xA;C 572.147 204.431 581.683 223.939 588.612 242.919&#xA;C 591.665 251.284 593.868 260.196 594.992 269.031&#xA;C 594.722 269.549 594.004 269.583 593.453 269.637&#xA;C 591.861 269.794 590.258 269.799 588.675 270.038&#xA;C 581.662 271.097 574.538 271.992 567.5 272.845&#xA;C 566.884 272.563 566.875 271.813 566.726 271.18&#xA;C 566.357 269.614 566.032 268.029 565.727 266.45&#xA;C 564.547 260.336 563.19 254.235 561.091 248.363&#xA;C 559.602 244.196 557.586 240.199 555.519 236.292&#xA;C 547.734 221.576 535.874 205.684 518 203.447&#xA;C 513.686 202.907 509.353 202.915 505.079 203.785&#xA;C 498.76 205.072 492.976 208.728 488.123 212.837&#xA;C 476.672 222.534 470.326 234.972 464.951 248.712&#xA;C 462.619 254.673 461.023 260.829 459.684 267.08&#xA;C 459.339 268.694 457.96 272.065 458.944 273.485&#xA;C 457.58 273.649 457.469 278.717 457.3 280.055&#xA;C 456.654 285.165 456.231 290.277 455.893 295.413&#xA;C 455.777 297.172 455.155 300.226 455.848 301.858&#xA;C 455.424 304.556 455.951 307.328 456.115 310.023&#xA;C 456.394 314.593 456.853 319.04 457.852 323.507&#xA;C 455.751 325.605 452.689 327.062 450.36 328.953&#xA;C 444.296 333.877 438.157 338.738 432.343 343.958&#xA;C 430.407 339.427 430.166 333.438 429.55 328.577&#xA;C 428.505 320.326 427.649 312.142 427.65 303.816&#xA;C 427.65 301.688 427.298 299.439 427.543 297.337&#xA;C 426.744 288.028 430.32 278.656 430.696 269.443 Z" opacity="1" fill="rgb(19,119,168)" fill-rule="evenodd"></path>
<path d="&#xA;M 458.944 273.485&#xA;C 471.257 275.667 483.951 279.474 495.576 284.065&#xA;C 499.57 285.642 503.495 287.403 507.486 288.973&#xA;C 509.429 289.737 511.251 291.134 513.435 290.917&#xA;C 513.391 291.032 513.348 291.147 513.304 291.262&#xA;C 511.569 291.854 509.856 293.044 508.154 293.807&#xA;C 502.045 296.547 496.18 299.442 490.258 302.576&#xA;C 486.894 304.355 482.797 305.904 479.783 308.2&#xA;C 479.122 308.505 478.351 307.983 477.72 307.738&#xA;C 476.219 307.155 474.677 306.686 473.158 306.154&#xA;C 467.662 304.232 461.753 301.856 455.848 301.858&#xA;C 455.155 300.226 455.777 297.172 455.893 295.413&#xA;C 456.231 290.277 456.654 285.165 457.3 280.055&#xA;C 457.469 278.717 457.58 273.649 458.944 273.485 Z" opacity="1" fill="rgb(117,193,232)" fill-rule="evenodd"></path>
<path d="&#xA;M 481.84 597.801&#xA;C 494.06 597.791 506.282 597.785 518.503 597.8&#xA;C 528.908 597.813 539.22 597.541 548.727 602.489&#xA;C 554.631 605.561 559.807 609.946 563.187 615.741&#xA;C 573.372 633.202 568.34 658.318 550.839 668.995&#xA;C 542.236 674.244 531.971 675.202 522.11 675.05&#xA;C 518.641 674.997 515.172 674.973 511.703 674.965&#xA;C 510.069 674.961 508.185 674.645 506.608 675.134&#xA;C 505.912 679.433 506.439 684.159 506.446 688.511&#xA;C 506.458 695.982 506.24 703.491 506.426 710.954&#xA;C 498.333 711.607 490.111 710.468 482.002 710.996&#xA;C 481.553 706.555 481.854 701.965 481.84 697.502&#xA;C 481.811 688.836 481.838 680.169 481.831 671.503&#xA;C 481.813 646.939 481.619 622.362 481.84 597.801 Z&#xA;M 506.491 618.293&#xA;C 506.363 625.311 506.49 632.337 506.44 639.358&#xA;C 506.405 644.249 506.037 649.424 506.58 654.278&#xA;C 515.688 653.304 525.935 656.236 534.295 651.528&#xA;C 545.536 645.197 546.905 628.162 535.32 621.342&#xA;C 526.898 616.384 515.843 618.168 506.491 618.293 Z" opacity="1" fill="rgb(27,51,56)" fill-rule="evenodd"></path>
<path d="&#xA;M 494.499 458.93&#xA;C 496.275 457.642 497.803 455.489 499.39 453.936&#xA;C 502.973 450.429 506.68 447.086 510.434 443.765&#xA;C 511.85 442.512 513.383 441.404 514.765 440.112&#xA;C 515.228 439.679 515.952 439.085 516.021 438.446&#xA;C 516.298 438.639 516.558 438.826 516.808 439.052&#xA;C 519.559 442.309 524.514 443.155 526.549 447.241&#xA;C 527.544 449.241 526.457 452.821 526.262 454.98&#xA;C 526.192 455.753 525.625 456.907 526.164 457.511&#xA;C 527.404 457.849 528.73 458.211 530.016 458.256&#xA;C 528.944 458.87 530.315 460.009 531.002 460.099&#xA;C 531.467 465.188 528.025 468.017 524.629 471.261&#xA;C 523.335 472.498 522.239 474.07 520.628 474.923&#xA;C 519.309 475.622 517.802 475.79 516.439 476.38&#xA;C 515.692 476.33 515.165 475.645 514.492 475.33&#xA;C 512.836 474.555 511.317 473.882 509.819 472.8&#xA;C 504.344 468.848 499.042 463.918 494.499 458.93 Z" opacity="1" fill="rgb(80,169,178)" fill-rule="evenodd"></path>
<path d="&#xA;M 513.435 290.917&#xA;C 525.732 285.373 538.606 280.396 551.618 276.701&#xA;C 555.36 275.639 559.242 274.703 563.066 273.99&#xA;C 564.389 273.744 566.575 273.95 567.5 272.845&#xA;C 574.538 271.992 581.662 271.097 588.675 270.038&#xA;C 590.258 269.799 591.861 269.794 593.453 269.637&#xA;C 594.004 269.583 594.722 269.549 594.992 269.031&#xA;C 597.405 269.592 600.522 268.88 603.002 268.818&#xA;C 608.76 268.675 614.482 268.511 620.24 268.813&#xA;C 639.602 269.83 658.724 274.133 675.42 284.312&#xA;C 690.078 293.249 702.417 308.558 706.711 325.351&#xA;C 711.567 344.337 706.635 365.959 694.991 381.577&#xA;C 685.952 393.7 672.959 402.615 659.7 409.531&#xA;C 655.97 411.477 651.925 412.822 648.277 414.919&#xA;C 647.843 414.875 647.483 413.655 647.289 413.286&#xA;C 646.519 411.826 645.799 410.354 644.968 408.927&#xA;C 642.554 404.779 640.069 400.695 637.466 396.663&#xA;C 636.051 394.472 634.115 392.289 633.157 389.86&#xA;C 645.03 384.807 658.343 380.33 667.23 370.386&#xA;C 672.013 365.033 676.342 358.688 678.584 351.81&#xA;C 682.08 341.083 679.444 327.709 672.514 318.852&#xA;C 667.538 312.494 660.155 307.694 652.876 304.383&#xA;C 639.819 298.445 624.99 296.882 610.79 296.822&#xA;C 607.467 296.807 604.145 296.972 600.822 296.94&#xA;C 599.496 296.928 598.137 296.629 597.406 297.99&#xA;C 597.157 296.329 592.363 297.613 590.974 297.749&#xA;C 585.583 298.274 580.301 299.319 574.949 300.105&#xA;C 573.509 300.316 570.227 300.417 569.667 301.901&#xA;C 568.035 301.048 565.338 302.296 563.434 302.783&#xA;C 557.982 304.176 551.725 305.687 546.815 308.461&#xA;C 546.701 307.749 545.371 307.347 544.752 307.069&#xA;C 542.851 306.216 540.969 305.361 539.14 304.357&#xA;C 534.237 301.667 529.2 299.237 524.232 296.669&#xA;C 520.695 294.84 517.059 292.552 513.304 291.262&#xA;C 513.348 291.147 513.391 291.032 513.435 290.917 Z" opacity="1" fill="rgb(239,131,91)" fill-rule="evenodd"></path>
<path d="&#xA;M 514.315 322.504&#xA;C 515.625 320.391 520.395 319.219 522.576 318.131&#xA;C 527.55 315.65 532.679 313 537.925 311.152&#xA;C 540.109 310.382 542.304 309.635 544.507 308.92&#xA;C 545.241 308.681 546.156 308.766 546.815 308.461&#xA;C 547.865 310.117 550.18 310.879 551.777 311.925&#xA;C 555.522 314.377 559.191 316.941 562.943 319.383&#xA;C 564.123 320.15 565.25 321.006 566.403 321.812&#xA;C 566.726 322.038 567.449 322.71 567.783 322.451&#xA;C 568.586 324.28 572.257 325.874 573.885 327.085&#xA;C 578.463 330.49 583.863 334.069 587.549 338.456&#xA;C 587.973 339.085 588.24 339.818 588.879 340.273&#xA;C 589.477 340.7 590.758 340.861 591.147 341.518&#xA;C 591.426 341.99 590.447 342.042 591.193 342.502&#xA;C 591.983 342.988 593.017 343.006 593.776 343.508&#xA;C 593.912 345.052 595.305 346.004 596.431 346.927&#xA;C 598.661 348.758 600.651 350.854 602.662 352.917&#xA;C 610.719 361.186 618.408 369.69 625.454 378.853&#xA;C 627.563 381.595 629.469 384.498 631.445 387.336&#xA;C 631.752 387.777 632.721 389.845 633.157 389.86&#xA;C 634.115 392.289 636.051 394.472 637.466 396.663&#xA;C 640.069 400.695 642.554 404.779 644.968 408.927&#xA;C 645.799 410.354 646.519 411.826 647.289 413.286&#xA;C 647.483 413.655 647.843 414.875 648.277 414.919&#xA;C 648.328 417.238 650.861 420.086 651.9 422.156&#xA;C 654.427 427.188 656.661 432.432 658.623 437.71&#xA;C 660.342 442.334 661.555 447.214 662.864 451.965&#xA;C 666.348 464.605 668.717 477.499 667.162 490.652&#xA;C 665.958 500.837 663.238 511.584 657.486 520.201&#xA;C 647.337 535.405 628.268 545.747 609.937 545.797&#xA;C 599.501 545.826 588.901 542.521 579.671 537.86&#xA;C 559.995 527.923 547.129 509.996 532.981 493.849&#xA;C 529.389 489.75 525.783 485.473 521.84 481.708&#xA;C 520.154 480.099 518.082 478.868 516.439 477.257&#xA;C 516.507 476.827 516.476 477.118 516.439 476.38&#xA;C 517.802 475.79 519.309 475.622 520.628 474.923&#xA;C 522.239 474.07 523.335 472.498 524.629 471.261&#xA;C 528.025 468.017 531.467 465.188 531.002 460.099&#xA;C 532.846 459.937 535.8 460.281 537.429 459.388&#xA;C 538.174 458.763 539.037 457.678 540.105 457.914&#xA;C 541.64 459.217 542.764 460.907 544.103 462.396&#xA;C 548.451 467.228 552.196 472.206 556.159 477.344&#xA;C 567.436 491.969 580.428 508.785 598.469 515.165&#xA;C 607.306 518.29 617.453 517.803 625.536 512.774&#xA;C 633.403 507.878 638.532 497.939 639.593 488.956&#xA;C 641.344 474.119 636.693 459.557 631.218 445.981&#xA;C 628.269 438.669 625.179 431.489 621.422 424.559&#xA;C 620.333 422.564 618.766 420.848 617.622 418.868&#xA;C 614.188 412.921 611.064 407.048 606.755 401.663&#xA;C 605.863 400.548 605.372 398.951 604.49 397.996&#xA;C 596.379 388.144 588.287 378.373 579.209 369.346&#xA;C 569.766 359.956 558.902 351.285 548.055 343.575&#xA;C 537.174 335.839 525.609 329.556 514.315 322.504 Z" opacity="1" fill="rgb(99,197,210)" fill-rule="evenodd"></path>
<path d="&#xA;M 604.49 397.996&#xA;C 605.372 398.951 605.863 400.548 606.755 401.663&#xA;C 611.064 407.048 614.188 412.921 617.622 418.868&#xA;C 618.766 420.848 620.333 422.564 621.422 424.559&#xA;C 619.903 423.08 618.252 424.026 616.422 424.454&#xA;C 612.589 425.352 608.782 426.396 604.922 427.177&#xA;C 587.424 430.717 570.362 436.948 554.845 445.713&#xA;C 550.548 448.141 546.388 450.895 542.401 453.803&#xA;C 541.23 454.657 538.794 455.653 538.991 457.387&#xA;C 536.015 457.148 532.995 458.284 530.016 458.256&#xA;C 528.73 458.211 527.404 457.849 526.164 457.511&#xA;C 525.625 456.907 526.192 455.753 526.262 454.98&#xA;C 526.457 452.821 527.544 449.241 526.549 447.241&#xA;C 524.514 443.155 519.559 442.309 516.808 439.052&#xA;C 517.338 437.378 519.254 436.527 520.577 435.514&#xA;C 524.268 432.687 527.767 429.64 531.612 427.007&#xA;C 547.578 416.071 565.853 408.731 584.308 403.116&#xA;C 589.189 401.632 594.115 400.069 599.093 398.942&#xA;C 600.329 398.662 603.604 398.88 604.49 397.996 Z" opacity="1" fill="rgb(246,184,128)" fill-rule="evenodd"></path>
<path d="&#xA;M 530.016 458.256&#xA;C 532.995 458.284 536.015 457.148 538.991 457.387&#xA;C 539.656 457.429 539.763 457.331 540.105 457.914&#xA;C 539.037 457.678 538.174 458.763 537.429 459.388&#xA;C 535.8 460.281 532.846 459.937 531.002 460.099&#xA;C 530.315 460.009 528.944 458.87 530.016 458.256 Z" opacity="1" fill="rgb(118,165,159)" fill-rule="evenodd"></path>
<path d="&#xA;M 569.667 301.901&#xA;C 570.227 300.417 573.509 300.316 574.949 300.105&#xA;C 580.301 299.319 585.583 298.274 590.974 297.749&#xA;C 592.363 297.613 597.157 296.329 597.406 297.99&#xA;C 597.403 300.911 597.761 303.819 597.713 306.751&#xA;C 597.591 314.216 596.955 321.655 596.164 329.08&#xA;C 595.656 333.858 593.822 338.721 593.776 343.508&#xA;C 593.017 343.006 591.983 342.988 591.193 342.502&#xA;C 590.447 342.042 591.426 341.99 591.147 341.518&#xA;C 590.758 340.861 589.477 340.7 588.879 340.273&#xA;C 588.24 339.818 587.973 339.085 587.549 338.456&#xA;C 583.863 334.069 578.463 330.49 573.885 327.085&#xA;C 572.257 325.874 568.586 324.28 567.783 322.451&#xA;C 568.548 318.093 568.949 313.72 569.199 309.302&#xA;C 569.336 306.894 569.087 304.241 569.667 301.901 Z" opacity="1" fill="rgb(54,145,196)" fill-rule="evenodd"></path>
<path d="&#xA;M 581.978 590.105&#xA;C 581.988 589.938 581.997 589.77 582.006 589.603&#xA;C 583.439 588.456 586.71 589.08 588.51 589.081&#xA;C 594.409 589.086 600.319 589.242 606.217 589.145&#xA;C 606.774 598.522 606.223 608.102 606.232 617.501&#xA;C 606.251 637.001 606.237 656.501 606.263 676.001&#xA;C 606.274 684.168 606.248 692.335 606.257 700.501&#xA;C 606.259 703.001 606.273 705.5 606.271 707.999&#xA;C 606.271 708.89 606.019 710.283 606.289 711.113&#xA;C 600.563 710.846 594.742 711.042 589.002 711.053&#xA;C 587.096 711.057 583.638 711.752 581.911 711.051&#xA;C 582.387 699.572 582.096 687.99 582.076 676.499&#xA;C 582.045 658 582.062 639.499 582.084 621&#xA;C 582.093 613.999 582.092 606.999 582.073 599.999&#xA;C 582.064 596.723 581.724 593.372 581.978 590.105 Z" opacity="1" fill="rgb(27,51,55)" fill-rule="evenodd"></path>
<path d="&#xA;M 620.469 683.106&#xA;C 620.965 679.659 621.552 676.664 623.058 673.482&#xA;C 630.443 657.875 650.111 656.412 665.168 658.452&#xA;C 668.554 658.911 671.867 659.825 675.239 660.326&#xA;C 674.947 656.742 675.366 653.38 673.51 650.099&#xA;C 667.735 639.895 651.98 641.62 642.738 645.121&#xA;C 640.529 645.958 638.488 647.117 636.385 648.169&#xA;C 632.496 642.727 629.285 636.691 625.453 631.177&#xA;C 628.005 630.008 630.333 628.385 632.871 627.18&#xA;C 638.018 624.738 643.552 623.014 649.193 622.181&#xA;C 655.315 621.277 661.401 621.417 667.549 621.919&#xA;C 671.386 622.232 675.383 623.161 678.97 624.558&#xA;C 688.551 628.289 695.797 635.409 698.097 645.641&#xA;C 699.285 650.921 698.835 656.63 698.814 662.001&#xA;C 698.773 673.001 698.786 684.002 698.778 695.002&#xA;C 698.774 700.201 698.032 706.027 698.77 711.159&#xA;C 694.194 711.077 689.58 711.231 684.998 711.237&#xA;C 682.043 711.242 678.913 710.993 675.983 711.378&#xA;C 675.061 708.272 676.594 704.588 675.785 701.495&#xA;C 670.03 707.869 663.195 712.513 654.516 713.705&#xA;C 641.501 715.492 627.636 708.794 622.404 696.467&#xA;C 620.661 692.36 620.113 687.532 620.469 683.106 Z&#xA;M 643.422 680.568&#xA;C 643.091 681.883 643.02 683.223 643.137 684.573&#xA;C 644.013 694.627 656.533 697.982 664.686 694.789&#xA;C 668.361 693.349 673.276 690.059 674.519 686.099&#xA;C 675.473 683.06 674.955 679.128 674.841 675.985&#xA;C 672.755 675.232 670.238 675.01 668.05 674.639&#xA;C 663.2 673.818 657.844 673.549 652.952 674.057&#xA;C 650.63 674.298 647.876 674.837 646.051 676.405&#xA;C 644.777 677.5 644.106 679.087 643.422 680.568 Z" opacity="1" fill="rgb(26,51,56)" fill-rule="evenodd"></path>
<path d="&#xA;M 712.976 664.61&#xA;C 713.688 658.835 714.307 653.291 716.711 647.902&#xA;C 724.773 629.829 743.099 619.756 762.581 621.215&#xA;C 772.656 621.97 781.945 626.166 789.23 633.161&#xA;C 790.689 634.562 792.155 635.99 793.486 637.515&#xA;C 793.976 638.077 794.811 638.655 795.014 639.386&#xA;C 793.656 640.587 791.958 641.381 790.516 642.476&#xA;C 787.42 644.829 784.411 647.406 781.491 649.973&#xA;C 780.473 650.867 779.476 651.82 778.565 652.822&#xA;C 778.197 653.227 777.684 653.961 777.103 653.948&#xA;C 774.191 650.572 771.337 647.254 767.136 645.434&#xA;C 764.17 644.149 761.116 643.427 757.867 643.639&#xA;C 742.694 644.63 734.827 661.256 738.554 674.932&#xA;C 741.06 684.127 749.697 692.519 759.89 691.538&#xA;C 764.781 691.067 769.626 688.678 773.234 685.421&#xA;C 774.749 684.054 776.118 681.463 777.946 680.618&#xA;C 783.323 685.508 788.679 690.773 794.964 694.521&#xA;C 794.382 695.682 793.335 696.52 792.501 697.491&#xA;C 790.121 700.266 787.67 702.848 784.744 705.051&#xA;C 770.496 715.777 750.617 716.675 735.216 707.721&#xA;C 720.287 699.042 711.796 681.705 712.976 664.61 Z" opacity="1" fill="rgb(26,51,56)" fill-rule="evenodd"></path>
<path d="&#xA;M 802.49 665.616&#xA;C 802.851 662.398 802.746 659.171 803.364 655.973&#xA;C 805.275 646.073 810.252 637.406 817.958 630.887&#xA;C 822.153 627.339 826.945 624.74 832.203 623.166&#xA;C 849.37 618.028 868.03 622.664 878.787 637.444&#xA;C 880.719 640.099 882.671 643.012 883.853 646.098&#xA;C 886.194 652.212 887.295 658.157 887.367 664.704&#xA;C 887.403 667.984 887.908 671.842 887.244 675.057&#xA;C 874.549 674.368 861.717 674.941 849.004 674.89&#xA;C 844.17 674.87 839.337 674.88 834.504 674.863&#xA;C 831.688 674.853 828.741 674.606 825.967 675.117&#xA;C 827.779 680.092 829.348 684.651 833.709 688.144&#xA;C 841.347 694.261 853.228 693.806 861.476 689.222&#xA;C 864.13 687.747 866.973 685.815 868.716 683.272&#xA;C 869.722 683.527 871.067 685.436 871.852 686.168&#xA;C 874.637 688.77 877.402 691.363 880.303 693.841&#xA;C 881.236 694.638 882.164 695.465 883.169 696.173&#xA;C 883.428 696.355 883.913 696.533 883.88 696.897&#xA;C 882.407 699.212 879.682 700.977 877.651 702.794&#xA;C 862.856 716.031 838.196 717.29 821.728 706.213&#xA;C 808.588 697.374 801.591 681.21 802.49 665.616 Z&#xA;M 825.985 658.103&#xA;C 825.877 658.733 825.884 658.448 825.918 658.955&#xA;C 829.609 658.393 833.762 658.899 837.503 658.904&#xA;C 846.452 658.915 855.508 659.284 864.445 658.831&#xA;C 864.733 656.841 863.588 654.323 862.834 652.522&#xA;C 859.293 644.067 850.408 639.699 841.47 641.331&#xA;C 832.803 642.913 827.95 650.139 825.985 658.103 Z" opacity="1" fill="rgb(26,51,56)" fill-rule="evenodd"></path>

</svg>